<?xml version="1.0" encoding="UTF-8"?>
<svg width="646px" height="137px" viewBox="0 0 646 137" version="1.1" xmlns="http://www.w3.org/2000/svg" xmlns:xlink="http://www.w3.org/1999/xlink">
    <!-- Generator: Sketch 52.5 (67469) - http://www.bohemiancoding.com/sketch -->
    <title>am_new</title>
    <desc>Created with Sketch.</desc>
    <g id="Page-1" stroke="none" stroke-width="1" fill="none" fill-rule="evenodd">
        <g id="am_new">
            <g id="Layer_4">
                <g id="Group" transform="translate(136.000000, 0.000000)" fill="#005383">
                    <rect id="Rectangle" x="97.51" y="3.09" width="12.48" height="76.86"></rect>
                    <path d="M135.78,79.96 L124.06,79.96 L124.06,3.1 L141.47,3.1 C149.75,3.1 155.88,3.75 160.61,7.4 C165.23,11.05 168.02,17.07 168.02,24.27 C168.02,36.64 162,43.63 150.39,45.02 L176.84,79.95 L162.75,79.95 L137.17,45.56 L135.77,45.56 L135.77,79.96 L135.78,79.96 Z M138.79,35.89 C149.75,35.89 155.24,34.61 155.24,25.35 C155.24,15.9 149.98,13.85 138.79,13.85 L136.53,13.85 L136.53,35.89 L138.79,35.89 Z" id="Shape" fill-rule="nonzero"></path>
                    <path d="M247.89,3.1 L267.25,3.1 C275.42,3.1 281.54,3.43 286.27,6.97 C291,10.41 293.8,16.32 293.8,23.2 C293.8,31.37 289.93,37.07 282.72,39.22 C291.64,40.61 297.12,47.81 297.12,58.14 C297.12,64.48 294.75,70.28 290.89,74.16 C285.42,79.64 278.1,79.95 267.36,79.95 L247.89,79.95 L247.89,3.1 Z M264.88,35.57 C276.16,35.57 281.22,33 281.22,24.93 C281.22,15.36 275.95,13.53 264.88,13.53 L260.15,13.53 L260.15,35.57 L264.88,35.57 Z M264.46,69.54 C271.45,69.54 276.39,69.21 279.39,67.17 C282.4,65.13 284.24,61.59 284.24,57.39 C284.24,52.55 282.2,48.79 278.33,46.74 C275.43,45.23 271.99,45.02 268.22,45.02 L264.47,45.02 L260.16,45.02 L260.16,69.53 L264.46,69.53 L264.46,69.54 Z" id="Shape" fill-rule="nonzero"></path>
                    <path d="M382.42,3.1 L382.42,49.75 C382.42,63.62 388.86,70.61 401.55,70.61 C414.24,70.61 420.68,63.62 420.68,49.75 L420.68,3.1 L433.14,3.1 L433.14,50.93 C433.14,71.68 422.72,82 401.55,82 C380.37,82 370.04,71.68 370.04,50.93 L370.04,3.1 L382.42,3.1 Z" id="Path"></path>
                    <path d="M443.91,3.11 L460.78,3.11 C475.18,3.11 486.26,3.11 495.61,10.31 C504.43,17.08 509.16,27.83 509.16,41.59 C509.16,55.35 504.43,65.99 495.61,72.76 C486.69,79.64 476.58,79.96 464.11,79.96 L460.77,79.96 L443.9,79.96 L443.9,3.11 L443.91,3.11 Z M460.89,68.68 L466.91,68.68 C475.41,68.68 481.96,68.25 487.44,63.63 C493.24,58.68 496.15,51.26 496.15,41.48 C496.15,31.7 493.25,24.28 487.44,19.34 C481.74,14.6 474.65,14.29 465.41,14.29 L460.89,14.29 L456.37,14.29 L456.37,68.69 L460.89,68.69 L460.89,68.68 Z" id="Shape" fill-rule="nonzero"></path>
                    <polygon id="Path" points="90.52 79.96 71.92 0.09 45.53 57.62 18.51 0.09 0.34 79.96 11.84 79.96 21.86 34.16 45.37 83.09 68.89 35.17 78.92 79.96"></polygon>
                    <path d="M322.19,49.76 L333.06,25.52 L343.66,49.76 L322.19,49.76 Z M332.82,0.09 L295.63,79.95 L308.75,79.95 L317.67,60.19 L348.09,60.19 L356.79,79.95 L370.01,79.95 L332.82,0.09 Z" id="Shape" fill-rule="nonzero"></path>
                    <path d="M196.64,49.76 L207.51,25.52 L218.11,49.76 L196.64,49.76 Z M207.26,0.09 L170.07,79.95 L183.19,79.95 L192.11,60.19 L222.53,60.19 L231.23,79.95 L244.45,79.95 L207.26,0.09 Z" id="Shape" fill-rule="nonzero"></path>
                </g>
                <polygon id="Path" fill="#9BD3DD" points="34.87 16.54 3.18 48.23 0.13 34.83 34.87 0.09 62.46 27.69 90.06 0.09 124.79 34.83 121.74 48.23 90.06 16.54 62.46 44.13"></polygon>
                <polygon id="Path" fill="#9BD3DD" points="34.87 55.49 10.4 79.96 7.35 66.56 34.87 39.04 62.46 66.64 90.06 39.04 117.57 66.56 114.52 79.96 90.06 55.49 62.46 83.09"></polygon>
            </g>
            <g id="Asset_management_outlined" transform="translate(137.000000, 101.000000)" fill="#005383">
                <g id="Group">
                    <path d="M14.81,0.65 L29,33.72 L25.11,33.72 L21.38,24.76 L7.9,24.76 L4.09,33.72 L0.24,33.72 L14.81,0.65 Z M9.33,21.49 L20,21.49 L14.73,8.85 L9.33,21.49 Z" id="Shape" fill-rule="nonzero"></path>
                    <path d="M51.77,8.31 C50.39,5.88 48.76,4.88 46.37,4.88 C43.4,4.88 41.1,6.93 41.1,9.78 C41.1,10.37 41.27,11.24 41.89,12.04 C43.31,13.8 46.41,14.84 49.13,16.1 C52.56,17.69 55.7,19.83 55.7,24.51 C55.7,29.91 51.35,34.26 45.78,34.26 C40.8,34.26 36.99,31.12 35.94,26.1 L39.37,25.14 C39.91,28.66 42.51,31 45.69,31 C49.21,31 52.18,28.28 52.18,24.85 C52.18,21.21 49.54,19.91 44.81,17.9 C39.2,15.56 37.57,13.05 37.57,9.65 C37.57,4.84 41.63,1.61 46.4,1.61 C49.96,1.61 52.85,3.37 54.56,6.51 L51.77,8.31 Z" id="Path"></path>
                    <path d="M80.19,8.31 C78.81,5.88 77.18,4.88 74.79,4.88 C71.82,4.88 69.52,6.93 69.52,9.78 C69.52,10.37 69.69,11.24 70.31,12.04 C71.73,13.8 74.83,14.84 77.55,16.1 C80.98,17.69 84.12,19.83 84.12,24.51 C84.12,29.91 79.77,34.26 74.2,34.26 C69.22,34.26 65.41,31.12 64.36,26.1 L67.79,25.14 C68.33,28.66 70.93,31 74.11,31 C77.63,31 80.6,28.28 80.6,24.85 C80.6,21.21 77.96,19.91 73.23,17.9 C67.62,15.56 65.99,13.05 65.99,9.65 C65.99,4.84 70.05,1.61 74.82,1.61 C78.38,1.61 81.27,3.37 82.98,6.51 L80.19,8.31 Z" id="Path"></path>
                    <polygon id="Path" points="110.66 2.16 110.66 5.42 97.81 5.42 97.81 14.8 110.28 14.8 110.28 18.06 97.81 18.06 97.81 30.45 110.66 30.45 110.66 33.71 94.29 33.71 94.29 2.15 110.66 2.15"></polygon>
                    <polygon id="Path" points="137.74 2.16 137.74 5.42 130.04 5.42 130.04 33.71 126.52 33.71 126.52 5.42 118.9 5.42 118.9 2.16"></polygon>
                    <polygon id="Path" points="168.38 0.36 179.85 26.85 191.36 0.36 197.76 33.72 194.16 33.72 190.1 12.37 190.02 12.37 179.85 35.01 169.72 12.37 169.64 12.37 165.58 33.72 161.98 33.72"></polygon>
                    <path d="M218.43,0.65 L232.62,33.72 L228.73,33.72 L225,24.76 L211.52,24.76 L207.71,33.72 L203.86,33.72 L218.43,0.65 Z M212.95,21.49 L223.62,21.49 L218.35,8.85 L212.95,21.49 Z" id="Shape" fill-rule="nonzero"></path>
                    <polygon id="Path" points="241.29 0.82 265.9 26.6 265.9 2.16 269.42 2.16 269.42 35.14 244.8 9.4 244.8 33.72 241.28 33.72 241.28 0.82"></polygon>
                    <path d="M292.64,0.65 L306.83,33.72 L302.94,33.72 L299.21,24.76 L285.73,24.76 L281.92,33.72 L278.07,33.72 L292.64,0.65 Z M287.16,21.49 L297.83,21.49 L292.56,8.85 L287.16,21.49 Z" id="Shape" fill-rule="nonzero"></path>
                    <path d="M340.19,10.82 C337.51,7.05 334,4.88 329.35,4.88 C322.36,4.88 316.46,10.78 316.46,18.06 C316.46,25.55 323.11,30.99 329.1,30.99 C334.79,30.99 340.36,26.76 340.36,21.11 L330.98,21.11 L330.98,17.85 L344.12,17.85 L344.12,19.65 C344.12,23.17 343.12,26.77 340.19,29.69 C337.34,32.54 333.33,34.25 329.18,34.25 C320.43,34.25 312.94,27.05 312.94,18.01 C312.94,8.84 320.47,1.6 329.39,1.6 C334.92,1.6 339.35,4.03 342.74,8.42 L340.19,10.82 Z" id="Path"></path>
                    <polygon id="Path" points="370.49 2.16 370.49 5.42 357.64 5.42 357.64 14.8 370.11 14.8 370.11 18.06 357.64 18.06 357.64 30.45 370.49 30.45 370.49 33.71 354.12 33.71 354.12 2.15 370.49 2.15"></polygon>
                    <polygon id="Path" points="385.6 0.36 397.07 26.85 408.58 0.36 414.98 33.72 411.38 33.72 407.32 12.37 407.24 12.37 397.07 35.01 386.94 12.37 386.86 12.37 382.8 33.72 379.2 33.72"></polygon>
                    <polygon id="Path" points="440.39 2.16 440.39 5.42 427.54 5.42 427.54 14.8 440.01 14.8 440.01 18.06 427.54 18.06 427.54 30.45 440.39 30.45 440.39 33.71 424.02 33.71 424.02 2.15 440.39 2.15"></polygon>
                    <polygon id="Path" points="451.61 0.82 476.22 26.6 476.22 2.16 479.74 2.16 479.74 35.14 455.13 9.4 455.13 33.72 451.61 33.72"></polygon>
                    <polygon id="Path" points="507.4 2.16 507.4 5.42 499.7 5.42 499.7 33.71 496.18 33.71 496.18 5.42 488.56 5.42 488.56 2.16"></polygon>
                </g>
            </g>
        </g>
    </g>
</svg>